<?xml version="1.0" encoding="UTF-8"?>
<svg width="40px" height="40px" viewBox="0 0 40 40" version="1.1" xmlns="http://www.w3.org/2000/svg" xmlns:xlink="http://www.w3.org/1999/xlink">
    <title>icon</title>
    <g id="页面-1" stroke="none" stroke-width="1" fill="none" fill-rule="evenodd">
        <g id="icon">
            <rect id="矩形" x="0" y="0" width="40" height="40"></rect>
            <g id="编组" transform="translate(2.000000, 7.000000)" fill="#1890FF">
                <path d="M29.155209,10.7525928 L29.155209,10.7525928 L28.7601795,10.7525928 C28.6998454,11.0515111 28.6257509,11.3466189 28.5414949,11.6381278 L29.155209,11.6381278 C32.3711217,11.6381278 34.9877158,14.2545102 34.9877158,17.4704228 C34.9877158,20.6867589 32.3711217,23.3031413 29.155209,23.3031413 L18.8310941,23.3031413 L17.9455591,24.1886763 L29.2231642,24.1886763 L29.2231642,24.1869827 C32.8961341,24.1501472 35.8732508,21.1520723 35.8732508,17.4704228 C35.8732508,13.7661216 32.8595102,10.7525928 29.155209,10.7525928" id="Fill-42"></path>
                <path d="M29.155209,15.2238778 C30.3940689,15.2238778 31.401754,16.2317746 31.401754,17.4704228 C31.401754,18.7094945 30.3940689,19.7171796 29.155209,19.7171796 L22.4170558,19.7171796 L21.5315208,20.6027146 L29.155209,20.6027146 C30.8822458,20.6027146 32.287289,19.1976713 32.287289,17.4704228 C32.287289,15.7435978 30.8822458,14.3383428 29.155209,14.3383428 L27.3513257,14.3383428 C27.1660894,14.6419185 26.9656109,14.9374497 26.7503135,15.2238778 L29.155209,15.2238778 Z" id="Fill-43"></path>
                <path d="M29.155209,13.4310663 C31.3824894,13.4310663 33.194629,15.2432059 33.194629,17.4704864 C33.194629,19.6981902 31.3824894,21.5101181 29.155209,21.5101181 L20.6239691,21.5101181 L19.7386458,22.3956531 L29.2231642,22.3956531 L29.2231642,22.3939595 C31.9075018,22.3573357 34.0803758,20.1635036 34.0803758,17.4704864 C34.0803758,14.7548174 31.870878,12.5453196 29.155209,12.5453196 L28.2349554,12.5453196 C28.1191563,12.8459315 27.990867,13.1414627 27.8490289,13.4310663 L29.155209,13.4310663 Z" id="Fill-44"></path>
                <path d="M12.2901382,19.717116 L6.71802062,19.717116 C5.4791607,19.717116 4.47126391,18.7094309 4.47126391,17.470571 C4.47126391,16.2317111 5.4791607,15.2238143 6.71802062,15.2238143 L8.82145741,15.2238143 C8.60743018,14.938233 8.40610486,14.6431252 8.22023353,14.338491 L6.71802062,14.338491 C4.99098385,14.338491 3.58572887,15.7435343 3.58572887,17.470571 C3.58572887,19.1976078 4.99098385,20.6028628 6.71802062,20.6028628 L12.6570117,20.6028628 L12.2901382,19.717116 Z" id="Fill-45"></path>
                <path d="M6.76281603,21.5101393 C4.53532389,21.5101393 2.7231843,19.6979997 2.7231843,17.4705075 C2.7231843,15.2432271 4.53511219,13.4312992 6.76239263,13.4310875 L7.72435085,13.4310875 C7.58251282,13.1419073 7.45210651,12.8467995 7.33567231,12.5453408 L6.76281603,12.5453408 L6.76260433,12.5453408 L6.71793594,12.5453408 L6.71793594,12.5466109 C4.0230134,12.5707446 1.83764926,14.7698691 1.83764926,17.4705075 C1.83764926,20.1861765 4.04714703,22.3956743 6.76281603,22.3956743 L13.4448691,22.3956743 L13.0782072,21.5101393 L6.76281603,21.5101393 Z" id="Fill-46"></path>
                <path d="M13.7754364,23.3031625 L6.71804179,23.3031625 C3.50191742,23.3031625 0.885323336,20.6867801 0.885323336,17.470444 C0.885323336,14.2545313 3.50191742,11.6379373 6.71804179,11.6379373 L7.02987375,11.6379373 C6.94498263,11.3468518 6.87237003,11.0515323 6.81140085,10.7526139 L6.71804179,10.7526139 C3.01352886,10.7526139 -3.00841734e-15,13.7661428 -3.00841734e-15,17.470444 C-3.00841734e-15,21.1749569 3.01352886,24.1886975 6.71804179,24.1886975 L14.1423099,24.1886975 L13.7754364,23.3031625 Z" id="Fill-47"></path>
                <path d="M22.5340405,13.2613264 C23.8027499,11.992617 24.5015668,10.3053796 24.5015668,8.51102266 C24.5015668,4.80650973 21.4880379,1.79298087 17.7837367,1.79298087 C14.0792238,1.79298087 11.0656949,4.80650973 11.0656949,8.51102266 C11.0656949,10.8505033 12.2681427,12.9135057 14.0872683,14.1168003 L14.7282915,13.4757771 C13.0634941,12.4477689 11.9512299,10.6072617 11.9512299,8.51102266 C11.9512299,5.29489829 14.5676123,2.6785159 17.7837367,2.6785159 C20.9996494,2.6785159 23.6160318,5.29489829 23.6160318,8.51102266 C23.6160318,10.0687006 23.0095154,11.5330195 21.9086829,12.634487 L13.0781013,21.5101604 L13.4449749,22.3954838 L22.5340405,13.2613264 Z" id="Fill-48"></path>
                <path d="M22.7087341,8.51093798 C22.7087341,5.79526898 20.4992363,3.58577121 17.7835673,3.58577121 C15.0678983,3.58577121 12.8586123,5.79526898 12.8586123,8.51093798 C12.8586123,10.3586429 13.8815397,11.9711508 15.3907386,12.8132876 L16.0465807,12.1574455 C14.6862059,11.5066842 13.7439356,10.1168832 13.7439356,8.51093798 C13.7439356,6.28365753 15.5562869,4.47151794 17.7835673,4.47151794 C20.0110595,4.47151794 21.8231991,6.28365753 21.8231991,8.51093798 C21.8231991,9.58911869 21.4038242,10.602308 20.6421329,11.3650578 L12.2902017,19.7172007 L12.6570753,20.6027358 L21.2668553,11.992744 C22.1966353,11.0627523 22.7087341,9.82622107 22.7087341,8.51093798" id="Fill-49"></path>
                <path d="M17.783652,-1.50420867e-15 C13.0907186,-1.50420867e-15 9.27273521,3.81798335 9.27273521,8.51091681 C9.27273521,11.3438668 10.6644415,13.8567286 12.7998448,15.4044567 L13.4351521,14.7689376 C11.4564058,13.390145 10.1580585,11.1002018 10.1580585,8.51091681 C10.1580585,4.30637191 13.5791071,0.885746734 17.783652,0.885746734 C21.9884086,0.885746734 25.4092455,4.30637191 25.4092455,8.51091681 C25.4092455,10.5476686 24.6157993,12.4626936 23.1758258,13.9030906 L23.1758258,13.9028789 L13.7753517,23.3031413 L14.142437,24.1886763 L23.8005482,14.5303534 C23.8009716,14.52993 23.801395,14.5295066 23.8018184,14.5292949 C25.4092455,12.9216561 26.2945688,10.7843475 26.2945688,8.51091681 C26.2945688,3.81798335 22.4765855,-1.50420867e-15 17.783652,-1.50420867e-15" id="Fill-50"></path>
            </g>
        </g>
    </g>
</svg>